<svg xmlns="http://www.w3.org/2000/svg" viewBox="0 0 64 64" fill="none">
  <!-- Background circle -->
  <circle cx="32" cy="32" r="30" fill="#1a0008" stroke="#d63031" stroke-width="2"/>
  <!-- Left waves -->
  <path d="M9 44 C2 34 9 18 9 18" stroke="#ff4757" stroke-width="3.5" stroke-linecap="round"/>
  <path d="M16 41 C11 34 16 22 16 22" stroke="#ff6b6b" stroke-width="2.5" stroke-linecap="round" opacity="0.55"/>
  <!-- Right waves -->
  <path d="M55 44 C62 34 55 18 55 18" stroke="#ff4757" stroke-width="3.5" stroke-linecap="round"/>
  <path d="M48 41 C53 34 48 22 48 22" stroke="#ff6b6b" stroke-width="2.5" stroke-linecap="round" opacity="0.55"/>
  <!-- Body -->
  <rect x="22" y="39" width="20" height="14" rx="3.5" fill="#d63031"/>
  <!-- Dome -->
  <path d="M21 39 C21 26 43 26 43 39Z" fill="#e74c3c"/>
  <!-- Light cap -->
  <ellipse cx="32" cy="27.5" rx="7" ry="5" fill="#e74c3c"/>
  <!-- Center glow -->
  <circle cx="32" cy="27.5" r="2.8" fill="white" opacity="0.55"/>
  <!-- Base plate -->
  <rect x="18" y="53" width="28" height="4" rx="2" fill="#a82929"/>
</svg>
